<svg width="1544" height="184" viewBox="0 0 1544 184" fill="none" xmlns="http://www.w3.org/2000/svg">
<path d="M1470.38 68.2896C1467.9 72.2996 1465.1 76.7496 1461.98 81.6496C1458.85 86.5396 1455.58 91.6196 1452.16 96.8596C1448.74 102.11 1445.29 107.42 1441.81 112.78C1438.33 118.15 1435.06 123.43 1431.99 128.61H1442.96C1444.26 125.9 1446.2 122.51 1448.8 118.44C1451.39 114.37 1454.34 110.12 1457.65 105.7C1460.95 101.28 1464.52 96.8496 1468.35 92.4296C1472.18 88.0096 1476.01 83.9996 1479.85 80.3996C1483.68 76.7996 1487.43 73.9096 1491.08 71.7296C1494.73 69.5496 1498.04 68.4596 1500.99 68.4596C1502.52 68.4596 1503.76 68.8096 1504.71 69.5196C1505.65 70.2296 1506.13 71.2896 1506.13 72.6996C1506.13 75.6496 1504.71 79.0696 1501.88 82.9596C1499.05 86.8496 1495.92 90.9196 1492.5 95.1696C1489.08 99.4196 1485.95 103.63 1483.12 107.82C1480.29 112.01 1478.87 115.87 1478.87 119.41C1478.87 122.71 1479.99 125.31 1482.23 127.19C1484.47 129.07 1487.3 130.02 1490.72 130.02C1493.31 130.02 1495.94 129.46 1498.59 128.34C1501.24 127.22 1503.93 125.69 1506.64 123.74C1509.35 121.79 1512.06 119.52 1514.78 116.93C1517.49 114.34 1520.15 111.62 1522.74 108.79C1527.1 104.07 1531.14 99.2696 1534.86 94.3696C1538.58 89.4796 1541.61 85.2596 1543.97 81.7196L1542.73 81.0096C1541.67 82.6596 1540.22 84.7196 1538.4 87.1996C1536.57 89.6796 1534.54 92.2996 1532.3 95.0696C1530.06 97.8396 1527.73 100.64 1525.31 103.47C1522.89 106.3 1520.5 108.9 1518.15 111.25C1512.25 117.26 1507.18 121.54 1502.94 124.08C1498.69 126.62 1494.68 127.88 1490.91 127.88C1487.61 127.88 1485.96 126.23 1485.96 122.93C1485.96 121.4 1486.64 119.48 1487.99 117.18C1489.35 114.88 1491.03 112.34 1493.03 109.57C1495.03 106.8 1497.21 103.88 1499.58 100.81C1501.94 97.7496 1504.12 94.7396 1506.13 91.7896C1508.13 88.8396 1509.81 86.0696 1511.17 83.4696C1512.52 80.8796 1513.21 78.6396 1513.21 76.7496C1513.21 73.6896 1512.24 71.1796 1510.29 69.2296C1508.34 67.2796 1505.6 66.3096 1502.06 66.3096C1498.05 66.3096 1494.01 67.5196 1489.94 69.9396C1485.87 72.3596 1481.95 75.3396 1478.18 78.8696C1474.4 82.4096 1470.86 86.1496 1467.56 90.0996C1464.26 94.0496 1461.37 97.4996 1458.89 100.45L1458.54 100.1L1481.89 67.7196L1470.39 68.2496L1470.38 68.2896Z" fill="#373535"/>
<path d="M1463.66 82.9701C1460.95 85.8001 1458.03 88.1001 1454.9 89.8701C1451.77 91.6401 1448.44 92.5201 1444.91 92.5201C1440.9 92.5201 1437.75 91.3701 1435.45 89.0701C1433.15 86.7701 1431.88 84.2701 1431.65 81.5501C1431.41 77.0701 1429.97 73.4101 1427.31 70.5801C1424.66 67.7501 1420.91 66.3301 1416.08 66.3301C1411.95 66.3301 1407.85 67.1301 1403.79 68.7201C1399.72 70.3101 1395.86 72.4401 1392.2 75.0901C1388.54 77.7401 1385.15 80.7501 1382.03 84.1101C1378.9 87.4701 1376.19 90.8901 1373.89 94.3701C1371.59 97.8501 1369.79 101.3 1368.5 104.72C1367.2 108.14 1366.55 111.15 1366.55 113.74C1366.55 118.69 1367.85 122.65 1370.44 125.59C1373.03 128.54 1376.87 130.01 1381.94 130.01C1387.48 130.01 1392.91 128.59 1398.22 125.76C1403.53 122.93 1408.39 119.39 1412.82 115.14C1417.24 110.89 1421.05 106.24 1424.23 101.16C1427.41 96.0901 1429.6 91.3101 1430.78 86.8301H1431.13C1432.43 88.8401 1434.25 90.5801 1436.61 92.0501C1438.97 93.5301 1441.8 94.2601 1445.1 94.2601C1448.4 94.2601 1452 93.3201 1455.54 91.4301C1459.08 89.5501 1462.26 87.0101 1465.09 83.8201L1463.67 82.9401L1463.66 82.9701ZM1420.49 87.1301C1419.43 90.7301 1417.98 94.4101 1416.16 98.1901C1414.33 101.97 1412.18 105.62 1409.7 109.16C1407.22 112.7 1404.54 115.85 1401.65 118.62C1398.76 121.39 1395.75 123.63 1392.63 125.34C1389.5 127.05 1386.35 127.9 1383.17 127.9C1380.81 127.9 1379.04 127.02 1377.86 125.25C1376.68 123.48 1376.09 121.07 1376.09 118C1376.09 114.93 1376.68 111.4 1377.86 107.74C1379.04 104.09 1380.66 100.43 1382.73 96.7701C1384.79 93.1201 1387.12 89.5801 1389.72 86.1501C1392.31 82.7301 1395.06 79.7201 1397.95 77.1301C1400.84 74.5401 1403.7 72.4401 1406.53 70.8501C1409.36 69.2601 1412.01 68.4601 1414.49 68.4601C1416.97 68.4601 1419 69.3201 1420.24 71.0201C1421.48 72.7301 1422.1 74.8201 1422.1 77.3001C1422.1 80.2501 1421.57 83.5201 1420.51 87.1201L1420.49 87.1301Z" fill="#373535"/>
<path d="M1385.64 82.4396C1382.46 87.3896 1378.74 92.4396 1374.49 97.5696C1370.24 102.7 1365.61 107.42 1360.6 111.72C1355.59 116.03 1350.19 119.68 1344.41 122.69C1338.63 125.7 1332.56 127.55 1326.19 128.26L1325.84 127.91C1327.96 127.56 1330.06 126.79 1332.12 125.61C1334.18 124.43 1336.04 122.99 1337.69 121.28C1339.34 119.57 1340.67 117.69 1341.67 115.62C1342.67 113.56 1343.17 111.41 1343.17 109.16C1343.17 106.09 1342.73 103.32 1341.84 100.84C1340.95 98.3596 1339.98 95.9496 1338.92 93.5896C1337.74 91.2296 1336.71 88.8696 1335.82 86.5096C1334.94 84.1496 1334.49 81.6696 1334.49 79.0796C1334.49 76.1296 1335.31 73.6296 1336.97 71.5596C1338.62 69.4996 1341.16 68.4596 1344.58 68.4596C1347.29 68.4596 1349.38 69.2596 1350.86 70.8496C1352.33 72.4396 1353.07 74.4196 1353.07 76.7796C1353.07 78.3096 1352.81 79.9996 1352.27 81.8196C1351.74 83.6496 1351.12 85.2096 1350.41 86.5096C1353.24 86.5096 1355.8 85.7996 1358.1 84.3896C1360.4 82.9696 1361.55 80.7396 1361.55 77.6696C1361.55 74.2496 1360.07 71.5096 1357.13 69.4396C1354.18 67.3796 1350.35 66.3496 1345.63 66.3496C1343.03 66.3496 1340.56 66.7296 1338.2 67.4996C1335.84 68.2696 1333.75 69.3596 1331.92 70.7696C1330.09 72.1896 1328.65 73.9296 1327.58 75.9896C1326.52 78.0496 1325.99 80.3796 1325.99 82.9796C1325.99 84.9896 1326.4 87.1396 1327.23 89.4396C1328.05 91.7396 1328.94 94.0696 1329.88 96.4296C1330.82 98.7896 1331.68 101.18 1332.44 103.59C1333.21 106.01 1333.59 108.34 1333.59 110.58C1333.59 112.82 1333.3 114.83 1332.71 116.95C1332.12 119.07 1331.21 120.93 1329.97 122.52C1328.73 124.11 1327.2 125.41 1325.37 126.41C1323.54 127.41 1321.39 127.91 1318.91 127.91C1315.02 127.91 1311.51 126.88 1308.38 124.81C1305.26 122.75 1303.69 119.65 1303.69 115.52C1303.69 114.1 1303.93 112.72 1304.4 111.36C1304.87 110.01 1305.75 108.97 1307.05 108.26C1307.29 109.32 1307.79 110.21 1308.55 110.91C1309.32 111.62 1310.35 111.97 1311.65 111.97C1313.3 111.97 1314.54 111.38 1315.37 110.2C1316.19 109.02 1316.61 107.61 1316.61 105.95C1316.61 104.18 1316.05 102.85 1314.93 101.97C1313.81 101.08 1312.37 100.64 1310.6 100.64C1307.18 100.64 1304.47 101.88 1302.46 104.36C1300.46 106.84 1299.45 109.61 1299.45 112.68C1299.45 115.75 1300.01 118.19 1301.13 120.37C1302.25 122.55 1303.72 124.35 1305.55 125.77C1307.38 127.19 1309.53 128.25 1312.01 128.95C1314.49 129.66 1317.14 130.01 1319.97 130.01C1327.4 130.01 1334.39 128.62 1340.93 125.85C1347.48 123.08 1353.52 119.45 1359.06 114.97C1364.6 110.49 1369.7 105.45 1374.36 99.8396C1379.02 94.2396 1383.12 88.6096 1386.65 82.9496L1385.59 82.4196L1385.64 82.4396Z" fill="#373535"/>
<path d="M1313.46 36.5296C1312.4 37.6496 1311.87 39.0396 1311.87 40.6896C1311.87 42.3396 1312.4 43.7296 1313.46 44.8496C1314.52 45.9696 1315.88 46.5296 1317.53 46.5296C1319.18 46.5296 1320.54 45.9696 1321.6 44.8496C1322.66 43.7296 1323.19 42.3496 1323.19 40.6896C1323.19 39.0296 1322.66 37.6496 1321.6 36.5296C1320.54 35.4096 1319.18 34.8496 1317.53 34.8496C1315.88 34.8496 1314.52 35.4096 1313.46 36.5296Z" fill="#373535"/>
<path d="M1295.95 67.76C1290.4 76.14 1285.66 83.18 1281.71 88.9C1277.76 94.62 1274.55 99.49 1272.07 103.5C1269.59 107.51 1267.79 110.9 1266.67 113.67C1265.55 116.44 1264.99 119.07 1264.99 121.54C1264.99 123.66 1265.76 125.61 1267.29 127.38C1268.82 129.15 1271.18 130.03 1274.37 130.03C1277.2 130.03 1280.3 129.2 1283.66 127.55C1287.02 125.9 1290.47 123.72 1294.01 121C1297.55 118.29 1301.03 115.22 1304.45 111.8C1307.87 108.38 1311.11 104.93 1314.18 101.45C1317.25 97.97 1319.99 94.58 1322.41 91.28C1324.83 87.98 1326.75 85.15 1328.16 82.79L1326.74 81.91C1325.68 83.92 1324 86.48 1321.7 89.61C1319.4 92.74 1316.75 95.98 1313.74 99.34C1310.73 102.7 1307.52 106.09 1304.1 109.51C1300.68 112.93 1297.26 116 1293.84 118.71C1290.42 121.43 1287.15 123.64 1284.02 125.34C1280.89 127.05 1278.15 127.9 1275.79 127.9C1273.31 127.9 1272.08 126.37 1272.08 123.3C1272.08 121.77 1272.7 119.76 1273.94 117.28C1275.18 114.8 1277.18 111.44 1279.95 107.2C1282.72 102.95 1286.35 97.65 1290.83 91.28C1295.31 84.91 1300.79 77.07 1307.28 67.75H1295.96L1295.95 67.76Z" fill="#373535"/>
<path d="M1287.99 81.3801C1283.74 87.7501 1279.26 93.7601 1274.54 99.4301C1269.82 105.09 1265.22 110.05 1260.74 114.29C1256.26 118.54 1252.1 121.87 1248.27 124.29C1244.44 126.71 1241.28 127.92 1238.81 127.92C1235.63 127.92 1234.03 126.39 1234.03 123.32C1234.03 121.2 1234.97 118.28 1236.86 114.56C1238.75 110.85 1241.25 106.54 1244.38 101.65C1247.5 96.7601 1251.07 91.4201 1255.08 85.6401C1259.09 79.8601 1263.28 73.9001 1267.64 67.7701H1256.14L1250.3 78.2101H1249.95C1249.6 76.6801 1249.09 75.2001 1248.45 73.7901C1247.8 72.3701 1246.89 71.1101 1245.71 69.9901C1244.53 68.8701 1243.06 67.9901 1241.29 67.3401C1239.52 66.6901 1237.46 66.3701 1235.1 66.3701C1230.15 66.3701 1224.9 68.0801 1219.35 71.5001C1213.8 74.9201 1208.67 79.2001 1203.96 84.3301C1199.24 89.4601 1195.35 94.9501 1192.28 100.78C1189.21 106.62 1187.68 111.96 1187.68 116.79C1187.68 120.21 1188.56 123.28 1190.33 125.99C1192.1 128.7 1195.17 130.06 1199.53 130.06C1202.12 130.06 1204.84 129.41 1207.67 128.11C1210.5 126.81 1213.24 125.22 1215.9 123.33C1218.55 121.45 1221.03 119.41 1223.33 117.23C1225.63 115.05 1227.55 113.13 1229.08 111.48L1229.43 111.66C1228.84 113.31 1228.28 114.93 1227.75 116.53C1227.22 118.12 1226.95 119.74 1226.95 121.39C1226.95 123.75 1227.75 125.78 1229.34 127.49C1230.93 129.2 1233.44 130.05 1236.86 130.05C1240.99 130.05 1245.41 128.43 1250.13 125.19C1254.85 121.95 1259.57 117.91 1264.28 113.07C1269 108.23 1273.51 103.02 1277.81 97.4101C1282.11 91.8101 1285.86 86.5901 1289.04 81.7501L1287.98 81.4001L1287.99 81.3801ZM1228.99 109.07C1226.1 112.32 1223.18 115.17 1220.23 117.65C1217.28 120.13 1214.45 122.1 1211.74 123.58C1209.02 125.06 1206.67 125.79 1204.66 125.79C1202.65 125.79 1201.09 125.05 1199.97 123.58C1198.85 122.11 1198.29 120.01 1198.29 117.3C1198.29 111.99 1199.62 106.45 1202.27 100.67C1204.92 94.8901 1208.2 89.6101 1212.09 84.8401C1215.98 80.0601 1220.11 76.1401 1224.47 73.0801C1228.83 70.0101 1232.79 68.4801 1236.32 68.4801C1238.56 68.4801 1240.45 69.1901 1241.98 70.6001C1243.51 72.0201 1244.28 74.0801 1244.28 76.7901C1244.28 80.2101 1243.57 83.8101 1242.16 87.5801C1240.74 91.3601 1238.91 95.0701 1236.68 98.7301C1234.44 102.39 1231.87 105.84 1228.98 109.08L1228.99 109.07Z" fill="#373535"/>
<path d="M1096.54 87.2202C1094.65 89.9402 1093.71 93.3502 1093.71 97.4802C1093.71 102.43 1094.57 106.97 1096.27 111.1C1097.98 115.23 1100.43 118.8 1103.61 121.8C1106.79 124.81 1110.6 127.17 1115.02 128.88C1119.44 130.59 1124.31 131.44 1129.62 131.44C1136.22 131.44 1142.65 130.49 1148.9 128.61C1155.15 126.73 1160.81 123.42 1165.88 118.7C1170.95 113.98 1175.23 107.64 1178.71 99.6802C1182.19 91.7202 1184.34 81.6601 1185.17 69.5201C1185.52 64.5701 1185.91 59.5602 1186.32 54.4802C1186.73 49.4102 1187.35 44.4902 1188.18 39.7102C1189 34.9302 1190.1 30.4202 1191.45 26.1802C1192.8 21.9302 1194.6 18.2202 1196.85 15.0302C1199.09 11.8502 1201.83 9.34016 1205.08 7.51016C1208.32 5.68016 1212.24 4.77016 1216.84 4.77016C1220.26 4.77016 1223.21 5.80016 1225.69 7.87016C1228.17 9.93016 1229.4 13.0902 1229.4 17.3302C1229.4 20.1602 1229.07 22.5202 1228.43 24.4102C1227.78 26.3002 1226.81 28.2402 1225.51 30.2502C1229.16 30.2502 1232.32 29.3102 1234.97 27.4202C1237.62 25.5402 1238.95 22.7002 1238.95 18.9302C1238.95 14.0902 1237 10.1702 1233.11 7.17016C1229.22 4.16016 1224.15 2.66016 1217.89 2.66016C1210.93 2.66016 1204.77 4.25016 1199.4 7.44016C1194.03 10.6202 1189.55 15.1402 1185.95 20.9702C1182.35 26.8102 1179.58 33.9202 1177.64 42.2902C1175.69 50.6702 1174.66 60.1002 1174.54 70.6002C1174.42 77.0902 1173.59 83.8101 1172.06 90.7701C1170.53 97.7301 1168.05 104.07 1164.63 109.79C1161.21 115.51 1156.73 120.2 1151.18 123.85C1145.63 127.51 1138.85 129.33 1130.83 129.33C1126.11 129.33 1121.81 128.68 1117.91 127.38C1114.02 126.08 1110.68 124.37 1107.91 122.25C1105.14 120.13 1103.02 117.65 1101.54 114.82C1100.06 111.99 1099.33 109.04 1099.33 105.97C1099.33 103.73 1099.53 101.61 1099.95 99.6002C1100.36 97.6002 1101.22 95.8802 1102.51 94.4702C1102.86 95.0602 1103.42 95.5002 1104.19 95.8002C1104.95 96.1002 1105.63 96.2402 1106.22 96.2402C1107.99 96.2402 1109.41 95.6201 1110.47 94.3801C1111.53 93.1401 1112.06 91.6402 1112.06 89.8702C1112.06 87.8602 1111.38 86.2402 1110.03 85.0102C1108.67 83.7702 1106.64 83.1502 1103.92 83.1502C1100.85 83.1502 1098.38 84.5102 1096.49 87.2202" fill="#373535"/>
<path d="M1075.49 81.9099C1071.95 87.6899 1067.7 93.2898 1062.75 98.7198C1057.8 104.15 1052.6 108.98 1047.18 113.23C1041.75 117.48 1036.42 120.87 1031.17 123.4C1025.92 125.94 1021.35 127.2 1017.46 127.2C1015.81 127.2 1014.42 126.85 1013.3 126.14C1012.18 125.43 1011.29 124.52 1010.65 123.4C1010 122.28 1009.53 121.04 1009.23 119.68C1008.93 118.33 1008.79 116.94 1008.79 115.52C1008.79 112.57 1009.2 109.62 1010.03 106.67C1010.85 103.72 1011.91 101.07 1013.21 98.7098C1017.1 97.8898 1021.58 96.6199 1026.66 94.9099C1031.73 93.1999 1036.48 91.2598 1040.9 89.0698C1045.32 86.8898 1049.06 84.4698 1052.13 81.8198C1055.2 79.1698 1056.73 76.4298 1056.73 73.5898C1056.73 71.2298 1055.9 69.4298 1054.25 68.1998C1052.6 66.9598 1050.3 66.3398 1047.35 66.3398C1042.04 66.3398 1036.5 67.9299 1030.72 71.1199C1024.94 74.3099 1019.63 78.3198 1014.8 83.1498C1009.96 87.9898 1005.98 93.2599 1002.86 98.9799C999.73 104.7 998.17 110.16 998.17 115.34C998.17 120.06 999.52 123.69 1002.24 126.22C1004.95 128.76 1008.79 130.02 1013.74 130.02C1017.75 130.02 1021.85 129.28 1026.04 127.81C1030.23 126.34 1034.38 124.33 1038.51 121.79C1042.64 119.25 1046.62 116.37 1050.45 113.12C1054.28 109.88 1057.88 106.51 1061.24 103.04C1064.6 99.5598 1067.61 96.0498 1070.26 92.5098C1072.91 88.9698 1075.12 85.7298 1076.89 82.7798L1075.48 81.8998L1075.49 81.9099ZM1019.32 87.9298C1021.62 84.6298 1024.18 81.5298 1027.02 78.6398C1029.85 75.7498 1032.71 73.3298 1035.6 71.3898C1038.49 69.4398 1041.17 68.4698 1043.65 68.4698C1044.95 68.4698 1046.04 68.8798 1046.92 69.7098C1047.8 70.5398 1048.25 71.7698 1048.25 73.4198C1048.25 76.4898 1046.95 79.3498 1044.36 81.9998C1041.77 84.6498 1038.67 86.9798 1035.07 88.9898C1031.47 90.9998 1027.73 92.6798 1023.84 94.0298C1019.95 95.3898 1016.7 96.2998 1014.11 96.7698C1015.29 94.1798 1017.03 91.2298 1019.33 87.9198L1019.32 87.9298Z" fill="#373535"/>
<path d="M976.07 97.4804C979.96 91.2304 984.41 84.3604 989.43 76.8704C994.44 69.3804 999.66 61.6304 1005.09 53.6104C1010.51 45.5904 1015.94 37.5104 1021.37 29.3704C1026.79 21.2304 1031.81 13.5104 1036.41 6.19043H1024.73L979.09 78.9004H978.56C978.68 75.2504 977.61 72.2404 975.38 69.8804C973.14 67.5204 970.13 66.3404 966.36 66.3404C961.29 66.3404 955.8 68.0504 949.91 71.4704C944.01 74.8904 938.5 79.1404 933.37 84.2104C928.24 89.2804 923.96 94.7704 920.54 100.66C917.12 106.56 915.41 111.98 915.41 116.94C915.41 120.48 916.56 123.55 918.86 126.14C921.16 128.73 924.43 130.03 928.68 130.03C931.75 130.03 934.72 129.35 937.61 127.99C940.5 126.64 943.24 124.9 945.84 122.77C948.43 120.65 950.88 118.38 953.18 115.96C955.48 113.54 957.57 111.27 959.46 109.15L959.81 109.33C958.86 110.98 957.92 112.87 956.98 114.99C956.03 117.11 955.57 119.3 955.57 121.54C955.57 124.02 956.48 126.05 958.31 127.64C960.14 129.23 962.94 130.03 966.71 130.03C970.48 130.03 974.85 128.47 979.45 125.34C984.05 122.22 988.71 118.23 993.43 113.4C995.91 110.92 998.32 108.3 1000.68 105.53C1003.04 102.76 1005.25 100.02 1007.31 97.3004C1009.37 94.5904 1011.26 91.9604 1012.97 89.4304C1014.68 86.8904 1016.07 84.6804 1017.13 82.7904L1015.71 82.0804C1012.53 87.3904 1008.75 92.7804 1004.39 98.2704C1000.03 103.75 995.54 108.74 990.94 113.22C985.63 118.29 981.09 122.01 977.32 124.37C973.54 126.73 970.18 127.91 967.24 127.91C965.94 127.91 964.97 127.53 964.32 126.76C963.67 125.99 963.35 124.96 963.35 123.66C963.35 121.54 964.5 118.21 966.8 113.66C969.1 109.12 972.2 103.72 976.09 97.4704L976.07 97.4804ZM957.67 107.74C954.72 111.16 951.71 114.2 948.65 116.85C945.58 119.5 942.66 121.66 939.89 123.31C937.12 124.96 934.67 125.79 932.55 125.79C930.07 125.79 928.36 124.97 927.42 123.31C926.47 121.66 926 119.59 926 117.12C926 114.41 926.65 111.34 927.95 107.92C929.25 104.5 930.96 100.99 933.08 97.3904C935.2 93.7904 937.65 90.2604 940.42 86.7704C943.19 83.2904 946.05 80.2004 949 77.4804C951.95 74.7704 954.87 72.5904 957.76 70.9304C960.65 69.2804 963.27 68.4504 965.63 68.4504C969.05 68.4504 971.23 69.5104 972.18 71.6304C973.12 73.7504 973.6 76.2304 973.6 79.0604C973.6 81.4204 972.86 84.2204 971.39 87.4604C969.91 90.7104 968 94.0404 965.64 97.4604C963.28 100.88 960.62 104.3 957.68 107.72L957.67 107.74Z" fill="#373535"/>
<path d="M893.63 82.4396C890.45 87.3896 886.73 92.4396 882.48 97.5696C878.23 102.7 873.6 107.42 868.59 111.72C863.58 116.03 858.18 119.68 852.4 122.69C846.62 125.7 840.55 127.55 834.18 128.26L833.83 127.91C835.95 127.56 838.04 126.79 840.11 125.61C842.17 124.43 844.03 122.99 845.68 121.28C847.33 119.57 848.66 117.69 849.66 115.62C850.66 113.56 851.16 111.41 851.16 109.16C851.16 106.09 850.72 103.32 849.83 100.84C848.95 98.3596 847.97 95.9496 846.91 93.5896C845.73 91.2296 844.7 88.8696 843.81 86.5096C842.93 84.1496 842.48 81.6696 842.48 79.0796C842.48 76.1296 843.3 73.6296 844.96 71.5596C846.61 69.4996 849.14 68.4596 852.57 68.4596C855.28 68.4596 857.37 69.2596 858.85 70.8496C860.32 72.4396 861.06 74.4196 861.06 76.7796C861.06 78.3096 860.8 79.9996 860.27 81.8196C859.74 83.6496 859.12 85.2096 858.41 86.5096C861.24 86.5096 863.8 85.7996 866.1 84.3896C868.4 82.9696 869.55 80.7396 869.55 77.6696C869.55 74.2496 868.07 71.5096 865.13 69.4396C862.18 67.3796 858.35 66.3496 853.63 66.3496C851.03 66.3496 848.56 66.7296 846.2 67.4996C843.84 68.2696 841.75 69.3596 839.92 70.7696C838.09 72.1896 836.65 73.9296 835.58 75.9896C834.52 78.0496 833.99 80.3796 833.99 82.9796C833.99 84.9896 834.4 87.1396 835.23 89.4396C836.05 91.7396 836.94 94.0696 837.88 96.4296C838.82 98.7896 839.68 101.18 840.44 103.59C841.21 106.01 841.59 108.34 841.59 110.58C841.59 112.82 841.29 114.83 840.7 116.95C840.11 119.07 839.2 120.93 837.96 122.52C836.72 124.11 835.19 125.41 833.36 126.41C831.53 127.41 829.38 127.91 826.9 127.91C823.01 127.91 819.5 126.88 816.37 124.81C813.25 122.75 811.68 119.65 811.68 115.52C811.68 114.1 811.92 112.72 812.39 111.36C812.86 110.01 813.74 108.97 815.04 108.26C815.28 109.32 815.78 110.21 816.54 110.91C817.31 111.62 818.34 111.97 819.64 111.97C821.29 111.97 822.53 111.38 823.36 110.2C824.18 109.02 824.6 107.61 824.6 105.95C824.6 104.18 824.04 102.85 822.92 101.97C821.8 101.08 820.35 100.64 818.59 100.64C815.17 100.64 812.46 101.88 810.45 104.36C808.45 106.84 807.44 109.61 807.44 112.68C807.44 115.75 808 118.19 809.12 120.37C810.24 122.55 811.72 124.35 813.54 125.77C815.37 127.19 817.52 128.25 820 128.95C822.48 129.66 825.13 130.01 827.96 130.01C835.39 130.01 842.38 128.62 848.92 125.85C855.47 123.08 861.51 119.45 867.05 114.97C872.59 110.49 877.69 105.45 882.35 99.8396C887.01 94.2396 891.11 88.6096 894.65 82.9496L893.59 82.4196L893.63 82.4396Z" fill="#373535"/>
<path d="M764.31 67.7597C759.59 74.5997 755.26 80.6797 751.31 85.9797C747.36 91.2897 743.97 96.0597 741.14 100.31C738.31 104.56 736.1 108.39 734.51 111.81C732.92 115.23 732.12 118.42 732.12 121.36C732.12 123.72 732.95 125.75 734.6 127.46C736.25 129.17 738.96 130.02 742.74 130.02C745.45 130.02 748.19 129.43 750.97 128.25C753.74 127.07 756.48 125.51 759.2 123.56C761.91 121.61 764.62 119.34 767.34 116.75C770.05 114.16 772.65 111.44 775.12 108.61L775.47 108.96C775.12 109.55 774.55 110.94 773.79 113.12C773.02 115.3 772.64 117.57 772.64 119.93C772.64 123 773.61 125.45 775.56 127.27C777.51 129.1 780.13 130.01 783.43 130.01C786.38 130.01 789.53 129.1 792.89 127.27C796.25 125.44 799.67 123.11 803.15 120.28C806.63 117.45 810.02 114.24 813.32 110.64C816.62 107.04 819.75 103.51 822.7 100.02C825.65 96.5397 828.3 93.2397 830.66 90.1097C833.02 86.9897 834.91 84.4197 836.32 82.4097L834.55 81.8797C833.25 83.7697 831.42 86.2097 829.06 89.2197C826.7 92.2297 824.08 95.4397 821.19 98.8597C818.3 102.28 815.23 105.73 811.99 109.21C808.74 112.69 805.47 115.82 802.17 118.59C798.87 121.36 795.68 123.6 792.62 125.31C789.55 127.02 786.84 127.87 784.48 127.87C782.95 127.87 781.77 127.37 780.94 126.37C780.11 125.37 779.7 124.16 779.7 122.74C779.7 120.73 780.29 118.4 781.47 115.75C782.65 113.1 784.62 109.65 787.4 105.4C790.17 101.15 793.77 95.9997 798.19 89.9197C802.61 83.8497 808.01 76.4497 814.38 67.7197H802.17L786.6 91.4297C785.77 92.7297 784.51 94.4997 782.8 96.7397C781.09 98.9797 779.08 101.43 776.78 104.08C774.48 106.73 772 109.42 769.35 112.13C766.7 114.84 763.98 117.32 761.21 119.56C758.44 121.8 755.73 123.63 753.07 125.05C750.42 126.46 747.97 127.17 745.73 127.17C744.2 127.17 742.96 126.73 742.02 125.84C741.07 124.96 740.6 123.57 740.6 121.68C740.6 119.67 741.57 116.93 743.52 113.45C745.47 109.97 748.09 105.87 751.39 101.16C754.69 96.4397 758.47 91.2497 762.71 85.5897C766.96 79.9297 771.38 73.9697 775.98 67.7197H764.3L764.31 67.7597Z" fill="#373535"/>
<path d="M763.78 5.48047C754.7 19.8705 746.68 32.4005 739.72 43.0705C732.76 53.7505 726.72 62.9505 721.59 70.6705C716.46 78.4005 712.15 84.9105 708.67 90.2205C705.19 95.5305 702.39 100.04 700.27 103.75C698.15 107.47 696.64 110.65 695.76 113.3C694.88 115.95 694.43 118.52 694.43 121C694.43 123.72 695.22 125.9 696.82 127.55C698.41 129.2 701.04 130.03 704.69 130.03C708.11 130.03 711.91 128.79 716.1 126.31C720.28 123.83 725.27 119.88 731.05 114.46C735.41 110.33 739.95 105.47 744.67 99.8605C749.39 94.2605 753.87 88.4505 758.12 82.4305L756.17 81.7205C751.69 88.0905 747.09 94.0805 742.37 99.6805C737.65 105.28 733.02 110.18 728.48 114.36C723.94 118.55 719.69 121.85 715.74 124.27C711.79 126.69 708.34 127.9 705.39 127.9C702.79 127.9 701.5 126.43 701.5 123.48C701.5 122.06 701.88 120.36 702.65 118.35C703.42 116.34 704.8 113.63 706.81 110.21C708.81 106.79 711.59 102.4 715.12 97.0305C718.66 91.6705 723.2 84.8505 728.74 76.6005C734.28 68.3505 740.95 58.4105 748.73 46.7905C756.51 35.1705 765.65 21.4005 776.15 5.48047H763.77H763.78Z" fill="#373535"/>
<path d="M730.87 0C724.26 1.65 718.01 3.78 712.12 6.37C709.4 5.19 706.46 4.28 703.27 3.63C700.09 2.98 696.25 2.66 691.77 2.66C683.04 2.66 674.46 3.66 666.03 5.67C657.6 7.68 649.67 10.42 642.24 13.9C634.81 17.38 627.97 21.45 621.72 26.11C615.47 30.77 610.1 35.75 605.62 41.06C601.14 46.37 597.63 51.82 595.09 57.42C592.55 63.02 591.29 68.54 591.29 73.96C591.29 77.03 591.79 79.89 592.79 82.54C593.79 85.19 595.21 87.52 597.04 89.53C598.87 91.54 601.05 93.13 603.59 94.31C606.13 95.49 608.93 96.08 611.99 96.08C616.94 96.08 621.57 94.87 625.88 92.45C630.18 90.03 633.87 86.91 636.94 83.07C640 79.24 642.42 74.99 644.19 70.33C645.96 65.67 646.84 61.16 646.84 56.8V50.08H644.72V56.8C644.72 60.93 643.89 65.2 642.24 69.63C640.59 74.05 638.32 78.06 635.43 81.66C632.54 85.26 629.15 88.21 625.26 90.51C621.37 92.81 617.18 93.96 612.7 93.96C607.51 93.96 603.59 92.43 600.94 89.36C598.29 86.3 596.96 81.93 596.96 76.27C596.96 69.19 598.38 62.5 601.21 56.19C604.04 49.88 607.87 44.1 612.71 38.85C617.55 33.6 623.12 28.85 629.43 24.61C635.74 20.36 642.37 16.8 649.33 13.91C656.29 11.02 663.33 8.78 670.47 7.19C677.61 5.6 684.36 4.8 690.73 4.8C693.56 4.8 696.75 5.01 700.28 5.42C703.82 5.84 706.83 6.63 709.3 7.81C702.11 10.99 695.26 15.95 688.78 22.67C682.29 29.39 676.07 36.97 670.12 45.4C664.16 53.83 658.38 62.56 652.78 71.58C647.18 80.6 641.69 88.98 636.33 96.7C630.96 104.43 625.68 111 620.5 116.43C615.31 121.86 610.12 125.16 604.93 126.34C600.8 125.52 597.06 124.78 593.7 124.13C590.34 123.48 587.15 122.95 584.15 122.54C581.14 122.13 578.28 121.8 575.57 121.57C572.86 121.33 570.09 121.22 567.25 121.22C563.71 121.22 561.24 121.69 559.82 122.64C558.4 123.59 557.7 124.82 557.7 126.35C557.7 127.88 558.94 129.12 561.42 130.07C563.9 131.01 568.08 131.49 573.98 131.49C583.18 131.49 590.43 130.9 595.74 129.72C601.05 128.54 604.23 127.95 605.29 127.95C609.77 128.89 614.81 129.72 620.42 130.43C626.02 131.14 631.18 131.49 635.9 131.49C645.81 131.49 654.62 130.52 662.35 128.57C670.07 126.62 677.18 123.68 683.67 119.72C690.16 115.77 696.14 110.82 701.63 104.86C707.11 98.91 712.51 91.92 717.82 83.9L716.4 83.19C707.08 97.58 695.99 108.87 683.14 117.07C670.28 125.27 655.07 129.37 637.5 129.37C632.19 129.37 627.27 129.22 622.73 128.93C618.19 128.64 613.32 128.08 608.13 127.25V126.9C616.98 123.84 624.82 119.29 631.66 113.28C638.5 107.26 644.72 100.52 650.32 93.02C655.92 85.53 661.14 77.63 665.98 69.31C670.82 60.99 675.62 52.98 680.4 45.25C685.18 37.53 690.1 30.48 695.17 24.11C700.24 17.74 705.84 12.79 711.98 9.25C714.57 11.02 716.49 13.26 717.73 15.97C718.97 18.69 719.59 22.16 719.59 26.41C719.59 31.01 718.88 35.58 717.47 40.12C716.06 44.66 714.17 48.76 711.81 52.41C709.45 56.07 706.83 59.02 703.94 61.26C701.05 63.5 698.07 64.62 695.01 64.62C693.12 64.62 691.59 64.15 690.41 63.21C689.23 62.27 688.64 60.79 688.64 58.79C688.64 57.85 688.84 57.02 689.26 56.31C689.67 55.6 690.17 54.89 690.76 54.19C690.41 53.37 689.76 52.68 688.81 52.15C687.86 51.62 686.98 51.35 686.16 51.35C684.39 51.35 682.94 51.97 681.83 53.21C680.71 54.45 680.15 55.89 680.15 57.54C680.15 60.25 681.24 62.46 683.42 64.17C685.6 65.88 688.76 66.73 692.88 66.73C696.77 66.73 700.87 65.82 705.18 63.99C709.48 62.16 713.41 59.72 716.94 56.65C720.48 53.59 723.4 50.05 725.7 46.04C728 42.03 729.15 37.79 729.15 33.3C729.15 27.64 728.03 22.68 725.79 18.44C723.55 14.19 719.83 10.6 714.64 7.65C717 6.23 719.68 4.97 722.69 3.85C725.7 2.73 728.56 1.7 731.27 0.75L730.92 0.04L730.87 0Z" fill="#373535"/>
<path d="M535.56 81.3801C531.31 87.7501 526.83 93.7601 522.11 99.4301C517.39 105.09 512.79 110.05 508.31 114.29C503.83 118.54 499.67 121.87 495.84 124.29C492.01 126.71 488.85 127.92 486.38 127.92C483.2 127.92 481.6 126.39 481.6 123.32C481.6 121.2 482.54 118.28 484.43 114.56C486.31 110.85 488.82 106.54 491.95 101.65C495.07 96.7601 498.64 91.4201 502.65 85.6401C506.66 79.8601 510.85 73.9001 515.21 67.7701H503.71L497.87 78.2101H497.52C497.17 76.6801 496.66 75.2001 496.02 73.7901C495.37 72.3701 494.46 71.1101 493.28 69.9901C492.1 68.8701 490.63 67.9901 488.86 67.3401C487.09 66.6901 485.03 66.3701 482.67 66.3701C477.72 66.3701 472.47 68.0801 466.92 71.5001C461.37 74.9201 456.24 79.2001 451.53 84.3301C446.81 89.4601 442.92 94.9501 439.85 100.78C436.78 106.62 435.25 111.96 435.25 116.79C435.25 120.21 436.13 123.28 437.9 125.99C439.67 128.7 442.74 130.06 447.1 130.06C449.69 130.06 452.41 129.41 455.24 128.11C458.07 126.81 460.81 125.22 463.47 123.33C466.12 121.45 468.6 119.41 470.9 117.23C473.2 115.05 475.12 113.13 476.65 111.48L477 111.66C476.41 113.31 475.85 114.93 475.32 116.53C474.79 118.12 474.52 119.74 474.52 121.39C474.52 123.75 475.32 125.78 476.91 127.49C478.5 129.2 481.01 130.05 484.43 130.05C488.56 130.05 492.98 128.43 497.7 125.19C502.42 121.95 507.13 117.91 511.85 113.07C516.57 108.23 521.08 103.02 525.38 97.4101C529.68 91.8101 533.43 86.5901 536.61 81.7501L535.55 81.4001L535.56 81.3801ZM476.56 109.07C473.67 112.32 470.75 115.17 467.8 117.65C464.85 120.13 462.02 122.1 459.31 123.58C456.6 125.06 454.24 125.79 452.23 125.79C450.22 125.79 448.66 125.05 447.54 123.58C446.42 122.11 445.86 120.01 445.86 117.3C445.86 111.99 447.19 106.45 449.84 100.67C452.49 94.8901 455.77 89.6101 459.66 84.8401C463.55 80.0601 467.68 76.1401 472.04 73.0801C476.4 70.0101 480.35 68.4801 483.89 68.4801C486.13 68.4801 488.02 69.1901 489.55 70.6001C491.08 72.0201 491.85 74.0801 491.85 76.7901C491.85 80.2101 491.14 83.8101 489.73 87.5801C488.31 91.3601 486.48 95.0701 484.25 98.7301C482.01 102.39 479.44 105.84 476.55 109.08L476.56 109.07Z" fill="#373535"/>
<path d="M341.66 67.76C335.76 76.37 330.72 83.57 326.53 89.34C322.34 95.12 318.89 100.02 316.18 104.02C313.46 108.03 311.49 111.36 310.25 114.02C309.01 116.67 308.39 119.18 308.39 121.54C308.39 124.13 309.22 126.2 310.87 127.73C312.52 129.26 315.23 130.03 319.01 130.03C322.79 130.03 326.67 129.08 330.33 127.2C333.98 125.31 337.43 123.01 340.68 120.3C343.92 117.59 346.9 114.73 349.61 111.72C352.32 108.71 354.62 106.09 356.51 103.85L356.86 104.2C354.03 108.56 350.93 113.49 347.57 118.97C344.21 124.45 340.58 130.05 336.69 135.78C332.8 141.5 328.67 147.04 324.31 152.41C319.95 157.77 315.38 162.58 310.6 166.83C305.82 171.08 300.84 174.49 295.65 177.09C290.46 179.68 285.1 180.98 279.55 180.98C276.96 180.98 274.45 180.57 272.03 179.74C269.61 178.91 267.46 177.73 265.57 176.2C263.69 174.67 262.15 172.75 260.97 170.45C259.79 168.15 259.2 165.52 259.2 162.58C259.2 158.22 260.2 154.59 262.21 151.7C264.22 148.81 267.34 146.89 271.59 145.95V145.42C265.81 145.42 260.89 146.83 256.82 149.67C252.75 152.5 250.72 156.98 250.72 163.12C250.72 165.95 251.49 168.6 253.02 171.08C254.55 173.56 256.62 175.68 259.21 177.45C261.81 179.22 264.84 180.6 268.32 181.61C271.8 182.61 275.48 183.11 279.38 183.11C287.99 183.11 295.72 181.49 302.56 178.25C309.4 175 315.68 170.82 321.4 165.69C327.12 160.56 332.37 154.78 337.15 148.35C341.93 141.92 346.61 135.58 351.21 129.33C362.3 127.56 373.24 122.76 384.03 114.91C394.82 107.07 404.46 96.66 412.96 83.68L411.72 83.15C403.82 94.83 394.76 104.59 384.56 112.43C374.36 120.28 363.65 125.2 352.45 127.2C359.06 117.29 365.37 107.3 371.38 97.21C377.39 87.13 383.88 77.31 390.84 67.75H379.87C375.03 75.54 369.99 83 364.74 90.13C359.49 97.27 354.33 103.58 349.26 109.06C344.19 114.54 339.38 118.94 334.84 122.24C330.3 125.54 326.32 127.19 322.9 127.19C319.48 127.19 317.95 125.48 317.95 122.06C317.95 119.94 319.01 117.08 321.13 113.48C323.25 109.88 325.99 105.73 329.36 101.01C332.72 96.29 336.52 91.1 340.77 85.44C345.02 79.78 349.26 73.88 353.51 67.75H341.66V67.76Z" fill="#373535"/>
<path d="M302.04 58.2001C304.4 57.4901 307.05 56.3701 310 54.8401C312.95 53.3101 315.69 51.4201 318.23 49.1801C320.77 46.9401 322.92 44.4001 324.69 41.5701C326.46 38.7401 327.34 35.6701 327.34 32.3701C327.34 30.4801 326.72 28.7201 325.48 27.0601C324.24 25.4101 322.62 24.5801 320.62 24.5801C318.5 24.5801 316.79 25.1101 315.49 26.1701C314.19 27.2301 313.54 28.9401 313.54 31.3001C313.54 33.6601 314.34 35.2801 315.93 36.1601C317.52 37.0401 319.2 37.4901 320.97 37.4901C320.62 40.2101 319.76 42.5901 318.41 44.6501C317.05 46.7101 315.46 48.4801 313.63 49.9601C311.8 51.4401 309.83 52.7301 307.7 53.8501C305.58 54.9701 303.63 55.8901 301.86 56.5901L302.04 58.1801V58.2001Z" fill="#373535"/>
<path d="M222.07 68.2896C219.59 72.2996 216.79 76.7496 213.67 81.6496C210.54 86.5396 207.27 91.6196 203.85 96.8596C200.43 102.11 196.98 107.42 193.5 112.78C190.02 118.15 186.75 123.43 183.68 128.61H194.65C195.95 125.9 197.89 122.51 200.49 118.44C203.08 114.37 206.03 110.12 209.34 105.7C212.64 101.28 216.21 96.8496 220.04 92.4296C223.87 88.0096 227.7 83.9996 231.54 80.3996C235.37 76.7996 239.12 73.9096 242.77 71.7296C246.42 69.5496 249.73 68.4596 252.68 68.4596C254.21 68.4596 255.45 68.8096 256.4 69.5196C257.34 70.2296 257.82 71.2896 257.82 72.6996C257.82 75.6496 256.4 79.0696 253.57 82.9596C250.74 86.8496 247.61 90.9196 244.19 95.1696C240.77 99.4196 237.64 103.63 234.81 107.82C231.98 112.01 230.56 115.87 230.56 119.41C230.56 122.71 231.68 125.31 233.92 127.19C236.16 129.07 238.99 130.02 242.41 130.02C245 130.02 247.63 129.46 250.28 128.34C252.93 127.22 255.62 125.69 258.33 123.74C261.04 121.79 263.75 119.52 266.47 116.93C269.18 114.34 271.83 111.62 274.43 108.79C278.79 104.07 282.83 99.2696 286.55 94.3696C290.26 89.4796 293.3 85.2596 295.66 81.7196L294.42 81.0096C293.36 82.6596 291.91 84.7196 290.08 87.1996C288.25 89.6796 286.22 92.2996 283.98 95.0696C281.74 97.8396 279.41 100.64 276.99 103.47C274.57 106.3 272.18 108.9 269.83 111.25C263.93 117.26 258.86 121.54 254.61 124.08C250.36 126.62 246.35 127.88 242.58 127.88C239.28 127.88 237.63 126.23 237.63 122.93C237.63 121.4 238.31 119.48 239.67 117.18C241.02 114.88 242.71 112.34 244.71 109.57C246.72 106.8 248.9 103.88 251.26 100.81C253.62 97.7496 255.8 94.7396 257.81 91.7896C259.81 88.8396 261.49 86.0696 262.85 83.4696C264.2 80.8796 264.88 78.6396 264.88 76.7496C264.88 73.6896 263.91 71.1796 261.96 69.2296C260.01 67.2796 257.27 66.3096 253.73 66.3096C249.72 66.3096 245.68 67.5196 241.61 69.9396C237.54 72.3596 233.62 75.3396 229.85 78.8696C226.07 82.4096 222.54 86.1496 219.24 90.0996C215.94 94.0496 213.05 97.4996 210.57 100.45L210.22 100.1L233.57 67.7196L222.07 68.2496V68.2896Z" fill="#373535"/>
<path d="M179.26 5.48047C170.18 19.8705 162.16 32.4005 155.2 43.0705C148.24 53.7505 142.2 62.9505 137.07 70.6705C131.94 78.4005 127.63 84.9105 124.15 90.2205C120.67 95.5305 117.87 100.04 115.75 103.75C113.63 107.46 112.12 110.65 111.24 113.3C110.36 115.95 109.91 118.52 109.91 121C109.91 123.72 110.7 125.9 112.3 127.55C113.89 129.2 116.52 130.03 120.17 130.03C123.59 130.03 127.39 128.79 131.58 126.31C135.76 123.83 140.75 119.88 146.53 114.46C150.89 110.33 155.43 105.47 160.15 99.8605C164.87 94.2605 169.35 88.4505 173.6 82.4305L171.65 81.7205C167.17 88.0905 162.57 94.0805 157.85 99.6805C153.13 105.28 148.5 110.18 143.96 114.36C139.42 118.55 135.17 121.85 131.22 124.27C127.27 126.69 123.82 127.9 120.87 127.9C118.27 127.9 116.98 126.43 116.98 123.48C116.98 122.06 117.36 120.36 118.13 118.35C118.9 116.34 120.28 113.63 122.29 110.21C124.29 106.79 127.07 102.4 130.6 97.0305C134.14 91.6705 138.68 84.8505 144.22 76.6005C149.76 68.3505 156.43 58.4105 164.21 46.7905C171.99 35.1705 181.13 21.4005 191.63 5.48047H179.25H179.26Z" fill="#373535"/>
<path d="M3.22989 119.51C5.11989 122.28 7.52989 124.55 10.4799 126.32C13.4299 128.09 16.6399 129.39 20.1199 130.21C23.5999 131.03 26.9899 131.45 30.2899 131.45C38.7799 131.45 46.6499 129.89 53.9099 126.76C61.1599 123.64 67.9099 119.33 74.1699 113.84C80.4199 108.36 86.3199 101.87 91.8599 94.3802C97.3999 86.8902 102.65 78.7802 107.61 70.0502C112.68 61.2002 117.61 53.1002 122.38 45.7302C127.16 38.3602 131.67 32.0802 135.91 26.8902C140.16 21.7002 144.14 17.6602 147.85 14.7702C151.57 11.8802 154.9 10.4402 157.85 10.4402C164.1 10.4402 168.29 10.2402 170.41 9.82023C172.53 9.41023 173.59 8.61023 173.59 7.43023C173.59 6.49023 173.29 5.93023 172.71 5.75023C172.12 5.57023 171.41 5.49023 170.59 5.49023C169.29 5.49023 166.34 6.02023 161.74 7.08023C157.14 8.14023 150.95 8.67023 143.16 8.67023C136.67 8.55023 129.65 8.76023 122.11 9.29023C114.56 9.82023 107.07 10.7702 99.6399 12.1202C92.2099 13.4802 85.0699 15.2802 78.2299 17.5202C71.3899 19.7602 65.3199 22.4702 60.0099 25.6602C54.6999 28.8402 50.4799 32.5002 47.3599 36.6302C44.2299 40.7602 42.6699 45.4202 42.6699 50.6102C42.6699 57.3302 44.8199 62.4302 49.1299 65.9102C53.4299 69.3902 59.0699 71.1302 66.0199 71.1302C70.0299 71.1302 73.8299 70.4202 77.4299 69.0102C81.0299 67.6002 84.2099 65.7102 86.9799 63.3502C89.7499 60.9902 91.9299 58.2502 93.5299 55.1202C95.1199 52.0002 95.9199 48.6602 95.9199 45.1302C95.9199 44.1902 95.7999 43.0102 95.5699 41.5902C95.3299 40.1702 95.0999 39.1102 94.8599 38.4102L92.9099 38.7602C93.4999 40.5302 93.7999 42.7702 93.7999 45.4802C93.7999 48.4302 92.9999 51.3202 91.4099 54.1502C89.8199 56.9802 87.7199 59.5202 85.1299 61.7602C82.5399 64.0002 79.6199 65.7702 76.3699 67.0702C73.1199 68.3702 69.8499 69.0202 66.5499 69.0202C61.8299 69.0202 58.0899 67.6702 55.3199 64.9502C52.5499 62.2402 51.1599 58.4002 51.1599 53.4502C51.1599 47.0802 52.8699 41.6002 56.2899 37.0002C59.7099 32.4002 64.2199 28.5102 69.8199 25.3202C75.4199 22.1402 81.7899 19.6002 88.9299 17.7102C96.0699 15.8202 103.32 14.3802 110.69 13.3802C118.06 12.3802 125.23 11.7002 132.19 11.3502C139.15 11.0002 145.28 10.8202 150.59 10.8202V11.1702C145.16 13.1802 139.89 16.4202 134.76 20.9002C129.63 25.3802 124.82 30.3102 120.34 35.6702C115.86 41.0402 111.76 46.4902 108.04 52.0302C104.33 57.5802 101.05 62.4102 98.2199 66.5402C96.4499 69.2502 94.3299 72.7002 91.8499 76.8902C89.3699 81.0802 86.5699 85.5002 83.4499 90.1602C80.3199 94.8202 76.8999 99.4802 73.1899 104.14C69.4799 108.8 65.4099 112.99 60.9799 116.7C56.5599 120.41 51.8099 123.45 46.7399 125.81C41.6699 128.17 36.2999 129.35 30.6399 129.35C26.9799 129.35 23.7099 128.88 20.8199 127.93C17.9299 126.99 15.5099 125.72 13.5699 124.13C11.6199 122.54 10.2699 120.77 9.49989 118.82C8.72989 116.87 8.57989 114.84 9.05989 112.72C10.9399 113.07 12.5099 112.6 13.7499 111.3C14.9899 110 15.6099 108.41 15.6099 106.52C15.6099 104.63 15.0199 103.13 13.8399 102.01C12.6599 100.89 11.0699 100.33 9.05989 100.33C6.33989 100.33 4.2199 101.24 2.6899 103.07C1.1599 104.9 0.389893 107.05 0.389893 109.53C0.389893 113.42 1.32989 116.76 3.21989 119.53" fill="#373535"/>
</svg>
